<?xml version="1.0" standalone="no"?><!DOCTYPE svg PUBLIC "-//W3C//DTD SVG 1.1//EN" "http://www.w3.org/Graphics/SVG/1.1/DTD/svg11.dtd"><svg t="1764581049230" class="icon" viewBox="0 0 1024 1024" version="1.1" xmlns="http://www.w3.org/2000/svg" p-id="4815" xmlns:xlink="http://www.w3.org/1999/xlink" width="200" height="200"><path d="M1003.008 215.552l-204.8-153.6A51.2 51.2 0 0 0 768 51.2H256a51.2 51.2 0 0 0-30.72 10.24l-204.8 153.6A51.2 51.2 0 0 0 0 256v665.6a51.2 51.2 0 0 0 51.2 51.2h921.6a51.2 51.2 0 0 0 51.2-51.2V256a51.2 51.2 0 0 0-20.992-40.448zM272.896 153.6h477.696L819.2 204.8H204.8zM921.6 870.4H102.4V307.2h819.2z" fill="#eeeeee" p-id="4816"></path><path d="M716.8 716.8h153.6v102.4h-153.6z" fill="#eeeeee" p-id="4817"></path></svg>