<?xml version="1.0" standalone="no"?><!DOCTYPE svg PUBLIC "-//W3C//DTD SVG 1.1//EN" "http://www.w3.org/Graphics/SVG/1.1/DTD/svg11.dtd"><svg t="1765375091582" class="icon" viewBox="0 0 1024 1024" version="1.1" xmlns="http://www.w3.org/2000/svg" p-id="56897" xmlns:xlink="http://www.w3.org/1999/xlink" width="200" height="200"><path d="M0 0h1024v1024H0z" fill="#eeeeee" fill-opacity="0" p-id="56898"></path><path d="M804.382118 436.705882H242.206118A61.500235 61.500235 0 0 0 180.705882 498.206118v316.235294c0 33.942588 27.527529 61.470118 61.500236 61.470117h562.176a61.500235 61.500235 0 0 0 61.500235-61.470117v-316.235294a61.500235 61.500235 0 0 0-61.500235-61.500236zM242.206118 489.411765h562.176c4.848941 0 8.794353 3.915294 8.794353 8.794353v316.235294c0 4.818824-3.915294 8.764235-8.794353 8.764235H242.206118a8.794353 8.794353 0 0 1-8.794353-8.764235v-316.235294c0-4.848941 3.915294-8.794353 8.794353-8.794353z" fill="#eeeeee" p-id="56899"></path><path d="M523.294118 120.470588a202.029176 202.029176 0 0 1 201.908706 194.95153l0.12047 7.077647v140.559059a26.352941 26.352941 0 0 1-52.495059 3.312941l-0.210823-3.312941v-140.559059a149.323294 149.323294 0 0 0-298.526118-6.475294l-0.12047 6.475294v140.559059a26.352941 26.352941 0 0 1-52.525177 3.312941l-0.180706-3.312941v-140.559059A202.029176 202.029176 0 0 1 523.294118 120.470588zM523.294118 577.264941c13.432471 0 24.515765 10.029176 26.142117 23.04l0.210824 3.312941v105.411765a26.352941 26.352941 0 0 1-52.495059 3.312941l-0.210824-3.312941v-105.411765c0-14.576941 11.806118-26.352941 26.352942-26.352941z" fill="#eeeeee" p-id="56900"></path></svg>