<?xml version="1.0" standalone="no"?><!DOCTYPE svg PUBLIC "-//W3C//DTD SVG 1.1//EN" "http://www.w3.org/Graphics/SVG/1.1/DTD/svg11.dtd"><svg t="1765375120299" class="icon" viewBox="0 0 1024 1024" version="1.1" xmlns="http://www.w3.org/2000/svg" p-id="58208" data-spm-anchor-id="a313x.collections_detail.0.i10.4a663a81UMnEkg" xmlns:xlink="http://www.w3.org/1999/xlink" width="200" height="200"><path d="M526.908235 184.470588a26.352941 26.352941 0 0 1 3.312941 52.495059l-3.312941 0.210824h-289.731764v579.764705H527.058824c13.432471 0 24.515765 10.059294 26.142117 23.04l0.210824 3.312942a26.352941 26.352941 0 0 1-23.04 26.142117l-3.312941 0.210824H210.823529a26.352941 26.352941 0 0 1-26.142117-23.04L184.470588 843.294118V210.823529c0-13.432471 10.059294-24.515765 23.04-26.142117L210.823529 184.470588h316.084706zM666.533647 350.298353a26.352941 26.352941 0 0 1 34.575059-2.349177l2.710588 2.349177 158.117647 158.117647c9.426824 9.456941 10.24 24.244706 2.349177 34.575059l-2.349177 2.710588-158.117647 158.117647a26.352941 26.352941 0 0 1-39.634823-34.575059l2.349176-2.710588 139.504941-139.474823-139.504941-139.474824a26.352941 26.352941 0 0 1-2.349176-34.575059l2.349176-2.710588z" fill="#eeeeee" p-id="58209"></path><path d="M843.294118 500.555294a26.352941 26.352941 0 0 1 3.312941 52.495059l-3.312941 0.210823H386.499765a26.352941 26.352941 0 0 1-3.312941-52.495058l3.312941-0.210824H843.294118z" fill="#eeeeee" p-id="58210"></path></svg>