<?xml version="1.0" standalone="no"?><!DOCTYPE svg PUBLIC "-//W3C//DTD SVG 1.1//EN" "http://www.w3.org/Graphics/SVG/1.1/DTD/svg11.dtd"><svg t="1765375108986" class="icon" viewBox="0 0 1024 1024" version="1.1" xmlns="http://www.w3.org/2000/svg" p-id="57452" xmlns:xlink="http://www.w3.org/1999/xlink" width="200" height="200"><path d="M0 0h1024v1024H0z" fill="#eeeeee" fill-opacity="0" p-id="57453"></path><path d="M654.757647 234.134588a26.352941 26.352941 0 0 1 35.960471-9.818353 361.020235 361.020235 0 0 1 90.051764 72.794353 352.105412 352.105412 0 0 1 90.142118 235.52c0 196.608-161.340235 355.84-360.176941 355.84C311.898353 888.470588 150.588235 729.238588 150.588235 532.630588a352.075294 352.075294 0 0 1 90.172236-235.52 360.508235 360.508235 0 0 1 90.021647-72.794353 26.352941 26.352941 0 0 1 26.142117 45.778824 308.314353 308.314353 0 0 0-76.890353 62.162823 299.399529 299.399529 0 0 0-76.739764 200.372706c0 167.333647 137.577412 303.134118 307.440941 303.134118 169.863529 0 307.471059-135.800471 307.471059-303.134118a299.399529 299.399529 0 0 0-76.739765-200.372706 307.802353 307.802353 0 0 0-76.890353-62.162823 26.352941 26.352941 0 0 1-9.818353-35.960471z" fill="#eeeeee" p-id="57454"></path><path d="M510.735059 150.588235c13.432471 0 24.545882 10.059294 26.172235 23.04l0.180706 3.312941v351.382589a26.352941 26.352941 0 0 1-52.495059 3.312941l-0.210823-3.312941V176.941176c0-14.546824 11.806118-26.352941 26.352941-26.352941z" fill="#eeeeee" p-id="57455"></path></svg>